<svg xmlns="http://www.w3.org/2000/svg" xmlns:xlink="http://www.w3.org/1999/xlink" width="2566" zoomAndPan="magnify" viewBox="0 0 1924.5 495.749987" height="661" preserveAspectRatio="xMidYMid meet" version="1.0"><defs><g/></defs><path fill="#5271ff" d="M 126.707031 46.289062 L 282.453125 46.289062 C 309.097656 46.289062 334.652344 56.875 353.492188 75.714844 C 372.335938 94.558594 382.917969 120.113281 382.917969 146.757812 L 382.917969 347.691406 C 382.917969 374.335938 372.335938 399.890625 353.492188 418.730469 C 334.652344 437.574219 309.097656 448.15625 282.453125 448.15625 L 126.707031 448.15625 C 100.0625 448.15625 74.507812 437.574219 55.664062 418.730469 C 36.824219 399.890625 26.238281 374.335938 26.238281 347.691406 L 26.238281 146.757812 C 26.238281 91.269531 71.21875 46.289062 126.707031 46.289062 Z M 126.707031 46.289062 " fill-opacity="1" fill-rule="nonzero"/><g fill="#ffffff" fill-opacity="1"><g transform="translate(130.379216, 338.733514)"><g><path d="M 35.671875 0.515625 C 19.867188 0.515625 11.96875 -1.21875 11.96875 -4.6875 L 11.96875 -173.390625 C 11.96875 -179.285156 14.660156 -182.234375 20.046875 -182.234375 L 65.859375 -182.234375 C 91.546875 -182.234375 110.070312 -176.941406 121.4375 -166.359375 C 132.8125 -155.773438 138.5 -140.414062 138.5 -120.28125 C 138.5 -103.613281 133.117188 -88.335938 122.359375 -74.453125 C 116.984375 -67.515625 109.085938 -61.960938 98.671875 -57.796875 C 88.253906 -53.628906 76.101562 -51.546875 62.21875 -51.546875 L 62.21875 -4.953125 C 62.21875 -2.867188 58.960938 -1.4375 52.453125 -0.65625 C 45.953125 0.125 40.359375 0.515625 35.671875 0.515625 Z M 62.21875 -136.9375 L 62.21875 -95.8125 L 65.609375 -95.8125 C 71.679688 -95.8125 76.800781 -97.71875 80.96875 -101.53125 C 85.132812 -105.351562 87.21875 -110.734375 87.21875 -117.671875 C 87.21875 -124.617188 85.785156 -129.566406 82.921875 -132.515625 C 80.054688 -135.460938 74.976562 -136.9375 67.6875 -136.9375 Z M 62.21875 -136.9375 "/></g></g></g><path fill="#5271ff" d="M 487.714844 42.921875 L 587.71875 42.921875 C 644.234375 42.921875 690.050781 88.734375 690.050781 145.25 L 690.050781 349.90625 C 690.050781 406.421875 644.234375 452.238281 587.71875 452.238281 L 487.714844 452.238281 C 431.199219 452.238281 385.386719 406.421875 385.386719 349.90625 L 385.386719 145.25 C 385.386719 88.734375 431.199219 42.921875 487.714844 42.921875 Z M 487.714844 42.921875 " fill-opacity="1" fill-rule="nonzero"/><g fill="#ffffff" fill-opacity="1"><g transform="translate(448.377806, 354.025198)"><g><path d="M 72.984375 -4.234375 C 72.984375 -1.003906 63.394531 0.609375 44.21875 0.609375 C 24.832031 0.609375 15.140625 -0.90625 15.140625 -3.9375 L 15.140625 -201.390625 C 15.140625 -208.453125 18.875 -211.984375 26.34375 -211.984375 L 84.1875 -211.984375 C 137.289062 -211.984375 163.84375 -191.289062 163.84375 -149.90625 C 163.84375 -137.382812 161.414062 -126.023438 156.5625 -115.828125 C 151.71875 -105.640625 144.859375 -97.515625 135.984375 -91.453125 L 174.140625 -27.859375 C 172.523438 -23.015625 167.273438 -17.460938 158.390625 -11.203125 C 146.273438 -2.523438 136.28125 1.8125 128.40625 1.8125 C 120.53125 1.8125 114.675781 -1.007812 110.84375 -6.65625 L 82.375 -72.984375 L 72.984375 -72.984375 Z M 72.984375 -158.390625 L 72.984375 -112.953125 L 74.5 -112.953125 C 93.675781 -112.953125 103.265625 -120.929688 103.265625 -136.890625 C 103.265625 -144.148438 101.394531 -149.546875 97.65625 -153.078125 C 93.925781 -156.617188 87.820312 -158.390625 79.34375 -158.390625 Z M 72.984375 -158.390625 "/></g></g></g><path fill="#5271ff" d="M 1080.019531 42.511719 L 1141.265625 42.511719 C 1197.78125 42.511719 1243.597656 88.328125 1243.597656 144.84375 L 1243.597656 349.5 C 1243.597656 406.015625 1197.78125 451.832031 1141.265625 451.832031 L 1080.019531 451.832031 C 1023.503906 451.832031 977.691406 406.015625 977.691406 349.5 L 977.691406 144.84375 C 977.691406 88.328125 1023.503906 42.511719 1080.019531 42.511719 Z M 1080.019531 42.511719 " fill-opacity="1" fill-rule="nonzero"/><g fill="#ffffff" fill-opacity="1"><g transform="translate(1040.682514, 353.617899)"><g><path d="M 2.71875 -27.25 C 2.71875 -33.101562 4.429688 -39.914062 7.859375 -47.6875 C 11.296875 -55.46875 15.035156 -60.769531 19.078125 -63.59375 C 26.753906 -57.945312 34.523438 -55.125 42.390625 -55.125 L 51.78125 -56.625 C 62.6875 -59.863281 68.34375 -68.546875 68.75 -82.671875 L 68.75 -159.90625 L 44.515625 -159.90625 C 41.085938 -159.90625 38.664062 -164.242188 37.25 -172.921875 C 36.644531 -177.160156 36.34375 -181.5 36.34375 -185.9375 C 36.34375 -190.382812 36.644531 -194.726562 37.25 -198.96875 C 38.664062 -207.644531 41.085938 -211.984375 44.515625 -211.984375 L 116.59375 -211.984375 C 120.632812 -211.984375 123.660156 -210.820312 125.671875 -208.5 C 127.691406 -206.1875 128.703125 -203.414062 128.703125 -200.1875 L 128.703125 -57.234375 C 128.703125 -37.453125 122.085938 -22.410156 108.859375 -12.109375 C 95.640625 -1.816406 79.789062 3.328125 61.3125 3.328125 C 42.84375 3.328125 28.457031 0.601562 18.15625 -4.84375 C 7.863281 -10.289062 2.71875 -17.757812 2.71875 -27.25 Z M 2.71875 -27.25 "/></g></g></g><path fill="#5271ff" d="M 1351.117188 42.921875 L 1402.363281 42.921875 C 1458.875 42.921875 1504.691406 88.734375 1504.691406 145.25 L 1504.691406 349.90625 C 1504.691406 406.421875 1458.875 452.238281 1402.363281 452.238281 L 1351.117188 452.238281 C 1294.601562 452.238281 1248.789062 406.421875 1248.789062 349.90625 L 1248.789062 145.25 C 1248.789062 88.734375 1294.601562 42.921875 1351.117188 42.921875 Z M 1351.117188 42.921875 " fill-opacity="1" fill-rule="nonzero"/><g fill="#ffffff" fill-opacity="1"><g transform="translate(1311.780129, 354.025198)"><g><path d="M 35.125 -52.09375 L 35.125 -159.90625 L 13.625 -159.90625 C 10.195312 -159.90625 7.773438 -164.242188 6.359375 -172.921875 C 5.753906 -177.160156 5.453125 -181.5 5.453125 -185.9375 C 5.453125 -190.382812 5.753906 -194.726562 6.359375 -198.96875 C 7.773438 -207.644531 10.195312 -211.984375 13.625 -211.984375 L 115.390625 -211.984375 C 118.816406 -211.984375 121.132812 -207.644531 122.34375 -198.96875 C 123.15625 -194.726562 123.5625 -190.382812 123.5625 -185.9375 C 123.5625 -181.5 123.15625 -177.160156 122.34375 -172.921875 C 121.132812 -164.242188 118.816406 -159.90625 115.390625 -159.90625 L 95.09375 -159.90625 L 95.09375 -52.09375 L 116.296875 -52.09375 C 119.722656 -52.09375 122.144531 -47.75 123.5625 -39.0625 C 124.363281 -34.820312 124.765625 -30.476562 124.765625 -26.03125 C 124.765625 -21.59375 124.363281 -17.253906 123.5625 -13.015625 C 122.144531 -4.335938 119.722656 0 116.296875 0 L 14.234375 0 C 10.796875 0 8.472656 -4.335938 7.265625 -13.015625 C 6.460938 -17.253906 6.0625 -21.59375 6.0625 -26.03125 C 6.0625 -30.476562 6.460938 -34.820312 7.265625 -39.0625 C 8.472656 -47.75 10.796875 -52.09375 14.234375 -52.09375 Z M 35.125 -52.09375 "/></g></g></g><path fill="#5271ff" d="M 1612.226562 42.921875 L 1740.402344 42.921875 C 1796.917969 42.921875 1842.730469 88.734375 1842.730469 145.25 L 1842.730469 349.90625 C 1842.730469 406.421875 1796.917969 452.238281 1740.402344 452.238281 L 1612.226562 452.238281 C 1555.714844 452.238281 1509.898438 406.421875 1509.898438 349.90625 L 1509.898438 145.25 C 1509.898438 88.734375 1555.714844 42.921875 1612.226562 42.921875 Z M 1612.226562 42.921875 " fill-opacity="1" fill-rule="nonzero"/><g fill="#ffffff" fill-opacity="1"><g transform="translate(1572.890645, 354.025198)"><g><path d="M 127.5 -203.8125 C 129.914062 -209.875 142.535156 -212.90625 165.359375 -212.90625 C 171.210938 -212.90625 178.425781 -212.445312 187 -211.53125 C 195.582031 -210.625 199.875 -209.769531 199.875 -208.96875 L 148.390625 -104.171875 L 201.6875 -3.9375 C 202.300781 -2.925781 197.960938 -1.96875 188.671875 -1.0625 C 179.378906 -0.15625 171.503906 0.296875 165.046875 0.296875 C 139.410156 0.296875 125.378906 -3.132812 122.953125 -10 L 100.234375 -67.84375 L 79.640625 -8.171875 C 77.628906 -2.523438 64.710938 0.296875 40.890625 0.296875 C 35.023438 0.296875 27.753906 -0.101562 19.078125 -0.90625 C 10.398438 -1.71875 6.460938 -2.828125 7.265625 -4.234375 L 54.515625 -109.03125 L 5.453125 -208.96875 C 4.847656 -209.96875 9.035156 -210.921875 18.015625 -211.828125 C 27.003906 -212.742188 34.628906 -213.203125 40.890625 -213.203125 C 66.328125 -213.203125 80.253906 -209.566406 82.671875 -202.296875 L 103.578125 -151.421875 Z M 127.5 -203.8125 "/></g></g></g><path fill="#5271ff" d="M 801.84375 34.710938 L 865.898438 34.710938 C 924.730469 34.710938 972.417969 82.402344 972.417969 141.230469 L 972.417969 354.269531 C 972.417969 382.519531 961.195312 409.613281 941.222656 429.589844 C 921.246094 449.566406 894.152344 460.789062 865.898438 460.789062 L 801.84375 460.789062 C 743.015625 460.789062 695.324219 413.097656 695.324219 354.269531 L 695.324219 141.230469 C 695.324219 82.402344 743.015625 34.710938 801.84375 34.710938 Z M 801.84375 34.710938 " fill-opacity="1" fill-rule="nonzero"/><g fill="#ffffff" fill-opacity="1"><g transform="translate(758.244931, 368.678137)"><g><path d="M 15.125 -43.5625 L 15.125 -198.4375 C 15.125 -212.757812 18.851562 -223.597656 26.3125 -230.953125 C 33.78125 -238.316406 44.570312 -242 58.6875 -242 L 92.5625 -242 C 106.882812 -242 117.722656 -238.316406 125.078125 -230.953125 C 132.441406 -223.597656 136.125 -212.757812 136.125 -198.4375 L 136.125 -43.5625 C 136.125 -29.445312 132.441406 -18.65625 125.078125 -11.1875 C 117.722656 -3.726562 106.882812 0 92.5625 0 L 58.6875 0 C 44.570312 0 33.78125 -3.726562 26.3125 -11.1875 C 18.851562 -18.65625 15.125 -29.445312 15.125 -43.5625 Z M 67.453125 -39.015625 L 85 -39.015625 C 93.070312 -39.015625 97.109375 -43.050781 97.109375 -51.125 L 97.109375 -190.875 C 97.109375 -198.945312 93.070312 -202.984375 85 -202.984375 L 67.453125 -202.984375 C 59.390625 -202.984375 55.359375 -198.945312 55.359375 -190.875 L 55.359375 -51.125 C 55.359375 -43.050781 59.390625 -39.015625 67.453125 -39.015625 Z M 67.453125 -39.015625 "/></g></g></g></svg>